<svg width="130" height="33" viewBox="0 0 130 33" fill="none" xmlns="http://www.w3.org/2000/svg">
<path d="M80 0H130V33H80V0Z" fill="#D60602"/>
<path d="M9.08809 15.2173H6.66544L5.62357 18.5689H8.07133L9.08809 15.2173ZM14.9627 12.87L14.5234 14.2382C14.423 14.5813 14.2514 14.8324 14.0087 14.9914C13.766 15.142 13.4062 15.2173 12.9292 15.2173H11.8246L10.7952 18.5689H12.4522C12.7869 18.5689 13.0171 18.6693 13.1426 18.8701C13.2765 19.0626 13.2765 19.4057 13.1426 19.8994L12.8288 20.9287H10.1802L8.62364 26H7.06712C6.91649 26 6.77841 25.9665 6.65288 25.8996C6.53573 25.8243 6.43949 25.7238 6.36417 25.5983C6.28886 25.4728 6.24283 25.3305 6.2261 25.1715C6.20936 25.0042 6.23446 24.8284 6.30141 24.6443L7.4437 20.9287H5.02104L3.8411 24.8075C3.78252 25.0251 3.69465 25.2092 3.57749 25.3598C3.4687 25.5104 3.33899 25.636 3.18836 25.7364C3.0461 25.8284 2.89128 25.8954 2.72392 25.9372C2.55655 25.9791 2.385 26 2.20926 26H0.715499L2.28458 20.9287H0.941446C0.598341 20.9287 0.364026 20.8283 0.2385 20.6275C0.112974 20.4266 0.117158 20.0835 0.251052 19.5982L0.564867 18.5689H2.89965L3.92897 15.2173H1.28037L1.70716 13.8616C1.81594 13.5185 1.99168 13.2675 2.23436 13.1085C2.47705 12.9495 2.84107 12.87 3.32644 12.87H4.54405L5.76165 8.90334C5.87881 8.56024 6.07546 8.29245 6.35162 8.09998C6.63615 7.89913 6.95415 7.79871 7.30562 7.79871H8.84959L7.28051 12.87H9.70317L11.2597 7.79871H12.7535C12.9208 7.79871 13.0715 7.828 13.2053 7.88658C13.3392 7.94516 13.448 8.02466 13.5317 8.12508C13.6154 8.2255 13.6656 8.34684 13.6823 8.48911C13.7075 8.623 13.6949 8.76945 13.6447 8.92845L12.4396 12.87H14.9627ZM25.8854 22.9497C26.2453 22.9497 26.5173 23.0501 26.7014 23.251C26.8855 23.4518 26.9566 23.7154 26.9148 24.0418L26.6637 26H14.9647L15.1028 24.9079C15.1362 24.6903 15.2074 24.4602 15.3161 24.2175C15.4333 23.9748 15.6132 23.7531 15.8559 23.5522L21.4418 18.0919C21.9941 17.5563 22.4711 17.0584 22.8728 16.5981C23.2745 16.1295 23.6051 15.6734 23.8645 15.2299C24.1239 14.7863 24.3164 14.3386 24.4419 13.8867C24.5674 13.4348 24.6302 12.9495 24.6302 12.4306C24.6302 11.7695 24.4754 11.2591 24.1657 10.8992C23.8561 10.5394 23.4 10.3594 22.7975 10.3594C22.5046 10.3594 22.2285 10.4097 21.969 10.5101C21.718 10.6105 21.4837 10.7486 21.2661 10.9243C21.0569 11.1001 20.8686 11.3093 20.7012 11.5519C20.5338 11.7863 20.4 12.0415 20.2995 12.3177C20.0987 12.7193 19.8686 12.9871 19.6091 13.121C19.3497 13.2549 18.9982 13.2842 18.5547 13.2089L16.8225 12.9076C17.0568 12.0206 17.3831 11.2465 17.8016 10.5854C18.2284 9.92429 18.7263 9.37198 19.2953 8.92845C19.8644 8.48492 20.492 8.15437 21.1782 7.93679C21.8644 7.71085 22.5883 7.59787 23.3498 7.59787C24.0862 7.59787 24.7473 7.71085 25.3331 7.93679C25.9189 8.15437 26.4127 8.464 26.8143 8.86569C27.2244 9.259 27.5382 9.736 27.7558 10.2967C27.9734 10.849 28.0822 11.4599 28.0822 12.1294C28.0822 12.8993 27.9692 13.6022 27.7432 14.2382C27.5257 14.8658 27.2286 15.4642 26.852 16.0332C26.4754 16.5939 26.0361 17.1379 25.534 17.6651C25.0319 18.1839 24.5005 18.7195 23.9398 19.2718L19.7472 23.4016C20.1991 23.2593 20.651 23.1506 21.1029 23.0752C21.5632 22.9916 21.9816 22.9497 22.3582 22.9497H25.8854ZM31.4608 12.9076C31.6951 12.0206 32.0214 11.2465 32.4399 10.5854C32.8667 9.92429 33.3646 9.37198 33.9336 8.92845C34.5027 8.48492 35.1303 8.15437 35.8165 7.93679C36.5027 7.71085 37.2266 7.59787 37.9881 7.59787C38.7329 7.59787 39.3898 7.70666 39.9589 7.92424C40.5363 8.14182 41.0175 8.4389 41.4024 8.81548C41.7957 9.19205 42.0928 9.63558 42.2937 10.1461C42.4945 10.6482 42.5949 11.1879 42.5949 11.7653C42.5949 12.4348 42.5238 13.0248 42.3815 13.5353C42.2476 14.0374 42.0468 14.4767 41.779 14.8533C41.5112 15.2215 41.1807 15.5311 40.7874 15.7822C40.394 16.0332 39.938 16.2383 39.4191 16.3973C41.0761 17.0249 41.9045 18.209 41.9045 19.9496C41.9045 20.6275 41.8209 21.2509 41.6535 21.82C41.4861 22.389 41.2518 22.9079 40.9505 23.3765C40.6493 23.8368 40.2894 24.2426 39.871 24.5941C39.461 24.9456 39.0133 25.2427 38.5279 25.4853C38.0425 25.7197 37.5279 25.8954 36.9839 26.0126C36.44 26.1381 35.8877 26.2008 35.327 26.2008C34.5152 26.2008 33.8081 26.1004 33.2056 25.8996C32.6031 25.6904 32.0842 25.3849 31.6491 24.9832C31.2223 24.5816 30.8708 24.0795 30.5946 23.4769C30.3268 22.8744 30.1135 22.1756 29.9545 21.3806L31.511 20.7656C31.921 20.6066 32.2851 20.5647 32.6031 20.64C32.9294 20.7154 33.147 20.8911 33.2558 21.1672C33.3813 21.4769 33.5152 21.7698 33.6575 22.0459C33.7997 22.3221 33.9629 22.5648 34.147 22.774C34.3311 22.9748 34.5445 23.138 34.7872 23.2635C35.0299 23.3807 35.3102 23.4393 35.6282 23.4393C36.0885 23.4393 36.5027 23.3472 36.8709 23.1631C37.2391 22.9706 37.5488 22.7154 37.7998 22.3974C38.0509 22.071 38.2434 21.6986 38.3773 21.2802C38.5111 20.8618 38.5781 20.4225 38.5781 19.9622C38.5781 19.6526 38.5321 19.3722 38.44 19.1212C38.348 18.8617 38.1764 18.64 37.9254 18.4559C37.6827 18.2634 37.3438 18.117 36.9086 18.0165C36.4818 17.9077 35.9253 17.8534 35.2391 17.8534L35.5404 15.506C36.2517 15.506 36.8458 15.4391 37.3228 15.3052C37.8082 15.1629 38.1931 14.9621 38.4777 14.7027C38.7706 14.4349 38.9756 14.1085 39.0928 13.7235C39.2183 13.3386 39.281 12.8993 39.281 12.4055C39.281 11.7528 39.122 11.2507 38.804 10.8992C38.4944 10.5394 38.0383 10.3594 37.4358 10.3594C37.1429 10.3594 36.8668 10.4097 36.6073 10.5101C36.3563 10.6105 36.122 10.7486 35.9044 10.9243C35.6868 11.1001 35.4943 11.3093 35.327 11.5519C35.168 11.7863 35.0383 12.0415 34.9378 12.3177C34.737 12.7193 34.5027 12.9871 34.2349 13.121C33.9755 13.2549 33.624 13.2842 33.1805 13.2089L31.4608 12.9076ZM50.0908 10.6356L49.4506 15.8324H55.388L54.9989 18.6818H49.0991L48.1954 26H44.5425L46.7895 7.78616H57.5094L57.1454 10.6356H50.0908ZM61.7108 23.5899C62.1962 23.5899 62.6313 23.4476 63.0163 23.1631C63.4012 22.8786 63.7276 22.4978 63.9954 22.0208C64.2632 21.5355 64.4682 20.9748 64.6104 20.3388C64.7611 19.7028 64.8364 19.0291 64.8364 18.3178C64.8364 17.3136 64.6816 16.5897 64.3719 16.1462C64.0623 15.6943 63.5811 15.4684 62.9284 15.4684C62.4514 15.4684 62.0162 15.6106 61.6229 15.8951C61.238 16.1713 60.9116 16.5479 60.6438 17.0249C60.376 17.5019 60.1668 18.0626 60.0162 18.7069C59.8739 19.3429 59.8028 20.0166 59.8028 20.7279C59.8028 21.7154 59.9576 22.4392 60.2672 22.8995C60.5769 23.3598 61.0581 23.5899 61.7108 23.5899ZM61.4095 26.1883C60.6898 26.1883 60.0204 26.0711 59.4011 25.8368C58.7818 25.5941 58.2463 25.2427 57.7944 24.7824C57.3425 24.3221 56.9868 23.7531 56.7274 23.0752C56.4764 22.3974 56.3508 21.6233 56.3508 20.753C56.3508 19.6233 56.5349 18.5772 56.9031 17.6149C57.2713 16.6441 57.7693 15.8073 58.3969 15.1043C59.0245 14.4014 59.7568 13.8533 60.5936 13.4599C61.4304 13.0583 62.3133 12.8574 63.2422 12.8574C63.9619 12.8574 64.6272 12.9788 65.2381 13.2214C65.8573 13.4558 66.3929 13.8072 66.8448 14.2759C67.2967 14.7361 67.6524 15.3052 67.9118 15.983C68.1712 16.6609 68.3009 17.4349 68.3009 18.3052C68.3009 19.4266 68.1168 20.4685 67.7486 21.4308C67.3804 22.3932 66.8783 23.2259 66.2423 23.9288C65.6147 24.6318 64.8824 25.1841 64.0456 25.5858C63.2171 25.9874 62.3384 26.1883 61.4095 26.1883ZM73.9092 15.9454C74.2355 15.3428 74.5787 14.8282 74.9385 14.4014C75.3067 13.9746 75.6875 13.644 76.0808 13.4097C76.4741 13.167 76.8758 13.029 77.2858 12.9955C77.6959 12.9537 78.1101 13.0248 78.5285 13.2089L77.9009 16.46C77.4072 16.2508 76.9427 16.1629 76.5076 16.1964C76.0808 16.2299 75.6833 16.3973 75.3151 16.6985C74.9552 16.9998 74.6289 17.4391 74.336 18.0165C74.0431 18.594 73.7878 19.322 73.5703 20.2007L72.8673 26H69.4656L71.0346 13.0457H72.8171C73.1769 13.0457 73.4573 13.1336 73.6581 13.3093C73.859 13.485 73.9594 13.7654 73.9594 14.1503L73.9092 15.9454Z" fill="#018226"/>
<path d="M101.821 15.6943C101.821 16.6901 101.708 17.6441 101.482 18.5563C101.256 19.4601 100.934 20.3011 100.515 21.0794C100.105 21.8576 99.6033 22.5606 99.0091 23.1882C98.415 23.8158 97.7497 24.3556 97.0132 24.8075C96.2852 25.251 95.4902 25.5941 94.6282 25.8368C93.7747 26.0795 92.8751 26.2008 91.9294 26.2008C90.7495 26.2008 89.6909 25.9958 88.7536 25.5858C87.8164 25.1673 87.0214 24.5983 86.3686 23.8786C85.7159 23.1506 85.2138 22.2928 84.8623 21.3053C84.5108 20.3179 84.3351 19.2509 84.3351 18.1044C84.3351 17.1086 84.4481 16.1588 84.674 15.255C84.9 14.3428 85.218 13.4976 85.628 12.7193C86.0464 11.9411 86.5527 11.2381 87.1469 10.6105C87.741 9.9745 88.4022 9.43474 89.1302 8.99121C89.8666 8.53932 90.6616 8.19203 91.5152 7.94935C92.3771 7.70666 93.2809 7.58532 94.2266 7.58532C95.4065 7.58532 96.4651 7.79453 97.4024 8.21295C98.3396 8.63137 99.1346 9.20461 99.7874 9.93266C100.44 10.6607 100.942 11.5185 101.294 12.5059C101.645 13.4934 101.821 14.5562 101.821 15.6943ZM98.0928 15.7822C98.0928 14.9955 97.9965 14.28 97.8041 13.6357C97.6116 12.9829 97.3271 12.4306 96.9505 11.9787C96.5823 11.5185 96.1304 11.1628 95.5948 10.9118C95.0676 10.6607 94.4651 10.5352 93.7872 10.5352C92.9085 10.5352 92.1135 10.7151 91.4022 11.0749C90.6993 11.4348 90.0968 11.9411 89.5946 12.5938C89.1009 13.2465 88.7202 14.0332 88.4524 14.9537C88.1846 15.8742 88.0507 16.8952 88.0507 18.0165C88.0507 18.8115 88.1469 19.5312 88.3394 20.1756C88.5319 20.8116 88.808 21.3597 89.1679 21.82C89.5361 22.2802 89.9838 22.6359 90.511 22.887C91.0466 23.1296 91.6533 23.251 92.3311 23.251C93.2098 23.251 94.0048 23.0752 94.7161 22.7238C95.4274 22.3639 96.03 21.8576 96.5237 21.2049C97.0258 20.5522 97.4107 19.7697 97.6785 18.8576C97.9547 17.937 98.0928 16.9119 98.0928 15.7822ZM106.377 22.8995C106.645 23.1589 106.947 23.343 107.281 23.4518C107.624 23.5522 107.955 23.6025 108.273 23.6025C108.775 23.6025 109.235 23.4435 109.654 23.1255C110.081 22.7991 110.445 22.3765 110.746 21.8576C111.047 21.3304 111.281 20.7363 111.449 20.0752C111.616 19.4141 111.7 18.7446 111.7 18.0667C111.7 17.1964 111.562 16.5563 111.286 16.1462C111.018 15.7361 110.645 15.5311 110.168 15.5311C109.859 15.5311 109.541 15.6441 109.214 15.87C108.896 16.0876 108.583 16.3931 108.273 16.7864C107.972 17.1713 107.691 17.6274 107.432 18.1546C107.172 18.6735 106.951 19.2341 106.767 19.8367L106.377 22.8995ZM107.319 15.3554C107.905 14.5771 108.553 13.9662 109.265 13.5227C109.984 13.0792 110.746 12.8574 111.549 12.8574C112.085 12.8574 112.57 12.9537 113.005 13.1461C113.449 13.3386 113.825 13.6357 114.135 14.0374C114.453 14.4307 114.696 14.9328 114.863 15.5437C115.039 16.1546 115.127 16.8784 115.127 17.7153C115.127 18.4601 115.047 19.1881 114.888 19.8994C114.738 20.6024 114.52 21.2677 114.235 21.8953C113.959 22.5229 113.625 23.1003 113.231 23.6276C112.846 24.1464 112.419 24.5983 111.951 24.9832C111.491 25.3598 110.993 25.6569 110.457 25.8745C109.93 26.0837 109.386 26.1883 108.825 26.1883C108.173 26.1883 107.595 26.0628 107.093 25.8117C106.591 25.5523 106.164 25.2092 105.813 24.7824L105.737 25.0711C105.637 25.3891 105.503 25.6234 105.336 25.7741C105.168 25.9247 104.9 26 104.532 26H102.637L104.909 7.28406H108.311L107.319 15.3554ZM121.352 13.0583L119.808 26H116.394L117.938 13.0583H121.352ZM122.105 9.38034C122.105 9.67324 122.042 9.94521 121.917 10.1963C121.8 10.4473 121.641 10.6691 121.44 10.8616C121.247 11.054 121.021 11.2047 120.762 11.3134C120.511 11.4222 120.252 11.4766 119.984 11.4766C119.716 11.4766 119.457 11.4222 119.205 11.3134C118.963 11.2047 118.745 11.054 118.553 10.8616C118.369 10.6691 118.218 10.4473 118.101 10.1963C117.992 9.94521 117.938 9.67324 117.938 9.38034C117.938 9.09582 117.996 8.82803 118.113 8.57698C118.231 8.31756 118.381 8.09161 118.565 7.89914C118.758 7.70666 118.975 7.55603 119.218 7.44724C119.469 7.33008 119.728 7.2715 119.996 7.2715C120.272 7.2715 120.536 7.3259 120.787 7.43469C121.047 7.54348 121.272 7.69411 121.465 7.88658C121.657 8.07906 121.812 8.305 121.929 8.56442C122.047 8.81548 122.105 9.08745 122.105 9.38034Z" fill="white"/>
</svg>
