<svg width="60" height="60" viewBox="0 0 60 60" fill="none" xmlns="http://www.w3.org/2000/svg">
<path d="M60 30C60 46.5685 46.5685 60 30 60C13.4315 60 0 46.5685 0 30C0 13.4315 13.4315 0 30 0C46.5685 0 60 13.4315 60 30ZM3.34914 30C3.34914 44.7189 15.2811 56.6509 30 56.6509C44.7189 56.6509 56.6509 44.7189 56.6509 30C56.6509 15.2811 44.7189 3.34914 30 3.34914C15.2811 3.34914 3.34914 15.2811 3.34914 30Z" fill="#F3FFF7"/>
<path d="M50.0291 50.0291C50.6831 50.6831 51.7473 50.686 52.3638 49.9966C56.9724 44.8427 59.6715 38.2389 59.9719 31.2973C60.2966 23.7966 57.7971 16.4468 52.9669 10.6991C48.1367 4.9515 41.3269 1.22385 33.8823 0.252269C26.9927 -0.646887 20.0228 0.874913 14.1524 4.52733C13.3672 5.0159 13.1868 6.06477 13.7184 6.82156C14.25 7.57834 15.292 7.7559 16.0807 7.27285C21.2623 4.09916 27.3905 2.78257 33.4489 3.57324C40.0624 4.43636 46.1119 7.74786 50.4029 12.8539C54.6939 17.9598 56.9144 24.4892 56.6259 31.1525C56.3617 37.2566 54.0097 43.0666 49.9913 47.6244C49.3796 48.3181 49.3751 49.3751 50.0291 50.0291Z" fill="#018226"/>
</svg>
