<svg width="24" height="24" viewBox="0 0 24 24" fill="none" xmlns="http://www.w3.org/2000/svg">
<path d="M12 15.5L15 12.5M12 4.5V15.5V4.5ZM12 15.5L9 12.5L12 15.5Z" stroke="white" stroke-width="1.5" stroke-linecap="round" stroke-linejoin="round"/>
<path d="M6.37433 19.4508L6.37426 19.4507C4.66268 19.1797 3.32033 17.8373 3.04925 16.1257L3.04924 16.1257C3.00305 15.8339 3 15.4652 3 14.5C3 13.5348 3.00305 13.1661 3.04924 12.8743L3.04925 12.8743C3.32033 11.1627 4.66268 9.82034 6.37426 9.54926L6.37433 9.54925C6.66602 9.50309 7.03471 9.5 8 9.5H8.25C8.38807 9.5 8.5 9.38807 8.5 9.25C8.5 9.11193 8.38807 9 8.25 9H8C7.05188 9 6.63604 9.00155 6.29605 9.0554L6.21792 8.56215L6.29605 9.0554C4.37053 9.36038 2.86038 10.8706 2.5554 12.796C2.50155 13.1361 2.5 13.5519 2.5 14.5C2.5 15.4481 2.50155 15.8639 2.5554 16.204M6.37433 19.4508L2.5554 16.204M6.37433 19.4508C6.66602 19.4969 7.03471 19.5 8 19.5H16C16.9653 19.5 17.3339 19.4969 17.6256 19.4508L17.6257 19.4507C19.3373 19.1797 20.6797 17.8373 20.9507 16.1257L20.9508 16.1256C20.9969 15.8339 21 15.4653 21 14.5C21 13.5347 20.9969 13.1661 20.9508 12.8744L20.9507 12.8743C20.6797 11.1627 19.3373 9.82034 17.6257 9.54926L17.6256 9.54924C17.3339 9.50309 16.9653 9.5 16 9.5H15.75C15.6119 9.5 15.5 9.38806 15.5 9.25C15.5 9.11194 15.6119 9 15.75 9H16C16.9481 9 17.3639 9.00155 17.704 9.0554C19.6294 9.36038 21.1396 10.8706 21.4446 12.796L21.4446 12.7961C21.4984 13.1361 21.5 13.5519 21.5 14.5C21.5 15.4481 21.4984 15.8639 21.4446 16.2039L21.4446 16.204C21.1396 18.1294 19.6294 19.6396 17.704 19.9446L17.7039 19.9446C17.3639 19.9984 16.9481 20 16 20H8C7.05187 20 6.63606 19.9984 6.2961 19.9446L6.29603 19.9446C4.37053 19.6396 2.86038 18.1294 2.5554 16.204M6.37433 19.4508L2.06156 16.2822L2.5554 16.204" fill="#2F3733" stroke="white"/>
</svg>
