<svg width="24" height="24" viewBox="0 0 24 24" fill="none" xmlns="http://www.w3.org/2000/svg">
<path d="M3.64299 3H20.3573C20.5424 3.06494 20.7103 3.1714 20.8479 3.31123C20.9856 3.45105 21.0895 3.62053 21.1515 3.80668C21.2136 3.99284 21.2322 4.19072 21.2059 4.38518C21.1797 4.57965 21.1093 4.76552 21.0001 4.92857L14.5716 12V19C14.5716 19.824 13.6308 20.2944 12.9716 19.8L10.2287 17.7429C9.72509 17.3651 9.4287 16.7724 9.4287 16.1429V12L3.00013 4.92857C2.89096 4.76552 2.82056 4.57965 2.79432 4.38518C2.76808 4.19072 2.7867 3.99284 2.84875 3.80668C2.91081 3.62053 3.01464 3.45105 3.15231 3.31123C3.28998 3.1714 3.45782 3.06494 3.64299 3Z" stroke="#979797" stroke-width="1.5" stroke-linecap="round" stroke-linejoin="round"/>
</svg>
