<svg width="99" height="99" viewBox="0 0 99 99" fill="none" xmlns="http://www.w3.org/2000/svg">
<circle cx="49.4997" cy="49.4997" r="48.656" fill="#F2F6FF" stroke="#D8E2FA" stroke-width="1.68749"/>
<path d="M72.2165 19.9369L49.7815 16.13C49.2742 16.044 48.756 16.044 48.2487 16.13L25.8138 19.9369C23.6109 20.3107 21.999 22.2192 21.999 24.4535V62.8877C21.999 64.4354 22.7804 65.8784 24.0764 66.7242L46.5113 81.366C48.0328 82.3589 49.9974 82.3589 51.5189 81.366L73.9538 66.7242C75.2499 65.8784 76.0312 64.4354 76.0312 62.8877V24.4535C76.0312 22.2191 74.4194 20.3107 72.2165 19.9369Z" fill="#5678CE" stroke="#849FE4" stroke-width="1.08065"/>
<path d="M34.8616 67.5147V68.629H34.6667V67.5147L33.6651 65.9245H33.8371C33.855 65.9245 33.8696 65.9289 33.8811 65.9379C33.8926 65.9455 33.9021 65.957 33.9098 65.9723L34.6839 67.2146C34.7004 67.2439 34.7157 67.2726 34.7297 67.3006C34.7438 67.3274 34.7559 67.3542 34.7661 67.3809C34.7763 67.3542 34.7877 67.3274 34.8005 67.3006C34.8132 67.2726 34.8279 67.2439 34.8444 67.2146L35.6185 65.9723C35.6249 65.9582 35.6338 65.9468 35.6453 65.9379C35.658 65.9289 35.6733 65.9245 35.6912 65.9245H35.8632L34.8616 67.5147ZM36.5637 66.6967C36.7001 66.6967 36.8217 66.7202 36.9288 66.7674C37.0371 66.8133 37.1282 66.8789 37.2021 66.9642C37.276 67.0496 37.3321 67.1528 37.3703 67.2739C37.4098 67.3937 37.4295 67.5281 37.4295 67.6772C37.4295 67.8263 37.4098 67.9607 37.3703 68.0805C37.3321 68.2002 37.276 68.3028 37.2021 68.3882C37.1282 68.4736 37.0371 68.5392 36.9288 68.5851C36.8217 68.6309 36.7001 68.6539 36.5637 68.6539C36.4274 68.6539 36.305 68.6309 36.1967 68.5851C36.0897 68.5392 35.9986 68.4736 35.9234 68.3882C35.8495 68.3028 35.7928 68.2002 35.7533 68.0805C35.7151 67.9607 35.696 67.8263 35.696 67.6772C35.696 67.5281 35.7151 67.3937 35.7533 67.2739C35.7928 67.1528 35.8495 67.0496 35.9234 66.9642C35.9986 66.8789 36.0897 66.8133 36.1967 66.7674C36.305 66.7202 36.4274 66.6967 36.5637 66.6967ZM36.5637 68.5105C36.6771 68.5105 36.7759 68.4914 36.86 68.4532C36.9453 68.4137 37.0161 68.3576 37.0721 68.285C37.1295 68.2124 37.1722 68.1251 37.2002 68.0231C37.2282 67.9199 37.2422 67.8046 37.2422 67.6772C37.2422 67.551 37.2282 67.4363 37.2002 67.3331C37.1722 67.2299 37.1295 67.142 37.0721 67.0694C37.0161 66.9955 36.9453 66.9388 36.86 66.8993C36.7759 66.8598 36.6771 66.84 36.5637 66.84C36.4503 66.84 36.3509 66.8598 36.2655 66.8993C36.1814 66.9388 36.1107 66.9955 36.0534 67.0694C35.9973 67.142 35.9546 67.2299 35.9253 67.3331C35.8973 67.4363 35.8833 67.551 35.8833 67.6772C35.8833 67.8046 35.8973 67.9199 35.9253 68.0231C35.9546 68.1251 35.9973 68.2124 36.0534 68.285C36.1107 68.3576 36.1814 68.4137 36.2655 68.4532C36.3509 68.4914 36.4503 68.5105 36.5637 68.5105ZM39.4178 66.7272V68.629H39.3165C39.2846 68.629 39.2662 68.6125 39.2611 68.5793L39.2439 68.2965C39.1559 68.406 39.054 68.494 38.938 68.5602C38.8234 68.6265 38.6953 68.6596 38.5539 68.6596C38.4481 68.6596 38.3557 68.643 38.2767 68.6099C38.1977 68.5768 38.1321 68.529 38.0799 68.4666C38.0276 68.4041 37.9881 68.3289 37.9614 68.241C37.9346 68.1531 37.9212 68.0537 37.9212 67.9429V66.7272H38.1047V67.9429C38.1047 68.1212 38.1455 68.2614 38.227 68.3634C38.3086 68.464 38.4328 68.5143 38.5997 68.5143C38.7233 68.5143 38.8387 68.4831 38.9457 68.4207C39.054 68.357 39.1502 68.2691 39.2343 68.1569V66.7272H39.4178ZM42.1464 67.7097C41.9655 67.716 41.8094 67.7307 41.6781 67.7536C41.5481 67.7753 41.4405 67.8052 41.3551 67.8435C41.271 67.8817 41.2086 67.9276 41.1678 67.9811C41.127 68.0333 41.1066 68.0932 41.1066 68.1607C41.1066 68.2245 41.1168 68.2799 41.1372 68.327C41.1589 68.3729 41.1869 68.4111 41.2213 68.4417C41.257 68.471 41.2978 68.4927 41.3436 68.5067C41.3895 68.5207 41.4373 68.5277 41.487 68.5277C41.5609 68.5277 41.6284 68.5201 41.6896 68.5048C41.752 68.4882 41.8094 68.4659 41.8616 68.4379C41.9151 68.4086 41.9648 68.3742 42.0107 68.3347C42.0566 68.2952 42.1018 68.2525 42.1464 68.2066V67.7097ZM41.0283 66.9967C41.1276 66.8973 41.2321 66.8222 41.3417 66.7712C41.4513 66.7202 41.5755 66.6947 41.7144 66.6947C41.8164 66.6947 41.9056 66.7113 41.982 66.7444C42.0585 66.7763 42.1215 66.8228 42.1712 66.884C42.2222 66.9439 42.2604 67.0171 42.2859 67.1038C42.3114 67.1891 42.3241 67.2847 42.3241 67.3905V68.629H42.2515C42.2133 68.629 42.1897 68.6112 42.1808 68.5755L42.154 68.3309C42.1018 68.3818 42.0495 68.4277 41.9973 68.4685C41.9463 68.5093 41.8928 68.5437 41.8368 68.5717C41.7807 68.5997 41.7202 68.6214 41.6552 68.6367C41.5902 68.652 41.5188 68.6596 41.4411 68.6596C41.3761 68.6596 41.313 68.6501 41.2519 68.6309C41.1907 68.6118 41.1359 68.5825 41.0875 68.543C41.0404 68.5035 41.0021 68.4532 40.9728 68.392C40.9448 68.3296 40.9308 68.255 40.9308 68.1684C40.9308 68.0881 40.9537 68.0136 40.9996 67.9448C41.0455 67.876 41.1175 67.8161 41.2156 67.7651C41.3137 67.7141 41.4392 67.6734 41.5921 67.6428C41.7463 67.6122 41.931 67.5944 42.1464 67.5893V67.3905C42.1464 67.2146 42.1082 67.0796 42.0317 66.9853C41.9565 66.8897 41.8444 66.8419 41.6953 66.8419C41.6036 66.8419 41.5252 66.8547 41.4602 66.8801C41.3965 66.9056 41.3424 66.9337 41.2978 66.9642C41.2532 66.9948 41.2168 67.0229 41.1888 67.0483C41.1608 67.0738 41.1372 67.0866 41.1181 67.0866C41.1041 67.0866 41.0926 67.0834 41.0837 67.077C41.0748 67.0706 41.0671 67.0624 41.0607 67.0522L41.0283 66.9967ZM43.1073 67.186C43.1366 67.1082 43.1698 67.0394 43.2067 66.9795C43.2449 66.9184 43.2883 66.8668 43.3367 66.8247C43.3864 66.7827 43.4412 66.7508 43.5011 66.7292C43.5622 66.7062 43.6298 66.6947 43.7037 66.6947C43.7432 66.6947 43.782 66.6986 43.8203 66.7062C43.8585 66.7126 43.8922 66.7247 43.9216 66.7425L43.9063 66.8687C43.8999 66.8891 43.8878 66.8993 43.8699 66.8993C43.8547 66.8993 43.8311 66.8948 43.7992 66.8859C43.7686 66.877 43.7279 66.8725 43.6769 66.8725C43.603 66.8725 43.5374 66.884 43.48 66.9069C43.424 66.9286 43.373 66.9617 43.3271 67.0063C43.2825 67.0509 43.243 67.1063 43.2086 67.1726C43.1755 67.2376 43.1449 67.3127 43.1169 67.3981V68.629H42.9334V66.7272H43.0309C43.0525 66.7272 43.0678 66.7317 43.0767 66.7406C43.0857 66.7495 43.0914 66.7648 43.0939 66.7865L43.1073 67.186ZM45.5106 67.486C45.5106 67.3841 45.496 67.293 45.4667 67.2127C45.4386 67.1312 45.3985 67.0624 45.3463 67.0063C45.294 66.9502 45.2316 66.9075 45.1589 66.8782C45.0876 66.8477 45.0086 66.8324 44.9219 66.8324C44.8238 66.8324 44.7359 66.8477 44.6582 66.8782C44.5804 66.9088 44.5129 66.9528 44.4556 67.0101C44.3995 67.0675 44.3543 67.1363 44.3199 67.2165C44.2855 67.2968 44.2625 67.3867 44.2511 67.486H45.5106ZM44.2415 67.6026V67.639C44.2415 67.7817 44.2581 67.9072 44.2912 68.0155C44.3243 68.1238 44.3715 68.2149 44.4326 68.2888C44.4938 68.3614 44.5677 68.4162 44.6543 68.4532C44.741 68.4901 44.8378 68.5086 44.9449 68.5086C45.0404 68.5086 45.1233 68.4984 45.1933 68.478C45.2634 68.4564 45.322 68.4328 45.3692 68.4073C45.4176 68.3806 45.4558 68.357 45.4839 68.3366C45.5119 68.3149 45.5323 68.3041 45.545 68.3041C45.5616 68.3041 45.5743 68.3105 45.5833 68.3232L45.633 68.3844C45.6024 68.4226 45.5616 68.4583 45.5106 68.4914C45.4609 68.5245 45.4049 68.5532 45.3424 68.5774C45.2813 68.6004 45.215 68.6188 45.1436 68.6329C45.0736 68.6469 45.0028 68.6539 44.9315 68.6539C44.8015 68.6539 44.683 68.6316 44.576 68.587C44.4689 68.5411 44.3772 68.4748 44.3007 68.3882C44.2243 68.3016 44.165 68.1958 44.123 68.0709C44.0822 67.9448 44.0618 67.8008 44.0618 67.639C44.0618 67.5026 44.0809 67.3771 44.1192 67.2624C44.1587 67.1465 44.2147 67.0471 44.2874 66.9642C44.3613 66.8801 44.4511 66.8145 44.5569 66.7674C44.6639 66.7202 44.785 66.6967 44.92 66.6967C45.0271 66.6967 45.1264 66.7151 45.2182 66.7521C45.3099 66.789 45.3896 66.8432 45.4571 66.9146C45.5246 66.9846 45.5775 67.0713 45.6158 67.1745C45.6553 67.2777 45.675 67.3962 45.675 67.53C45.675 67.558 45.6712 67.5772 45.6635 67.5873C45.6559 67.5975 45.6431 67.6026 45.6253 67.6026H44.2415ZM47.7277 68.6596C47.599 68.6596 47.4983 68.6239 47.4257 68.5526C47.3543 68.4812 47.3186 68.371 47.3186 68.2219V66.9222H47.0453C47.0313 66.9222 47.0198 66.9184 47.0109 66.9107C47.002 66.9031 46.9975 66.8923 46.9975 66.8782V66.8075L47.3225 66.7846L47.3683 66.1041C47.3709 66.0927 47.376 66.0825 47.3836 66.0736C47.3913 66.0646 47.4021 66.0602 47.4161 66.0602H47.5021V66.7865H48.1023V66.9222H47.5021V68.2124C47.5021 68.2646 47.5085 68.3098 47.5212 68.3481C47.5353 68.385 47.5537 68.4156 47.5767 68.4398C47.6009 68.464 47.6289 68.4819 47.6608 68.4933C47.6926 68.5048 47.727 68.5105 47.764 68.5105C47.8099 68.5105 47.8494 68.5042 47.8825 68.4914C47.9156 68.4774 47.9443 68.4627 47.9685 68.4475C47.9927 68.4309 48.0125 68.4162 48.0278 68.4035C48.043 68.3895 48.0551 68.3825 48.0641 68.3825C48.0743 68.3825 48.0845 68.3888 48.0946 68.4016L48.1443 68.4819C48.0959 68.5354 48.0341 68.5787 47.9589 68.6118C47.885 68.6437 47.8079 68.6596 47.7277 68.6596ZM48.7016 67.0483C48.7895 66.9413 48.8895 66.8559 49.0017 66.7922C49.1151 66.7285 49.2419 66.6967 49.382 66.6967C49.4865 66.6967 49.5783 66.7132 49.6573 66.7464C49.7375 66.7795 49.8038 66.8273 49.856 66.8897C49.9083 66.9521 49.9478 67.0273 49.9745 67.1152C50.0013 67.2032 50.0147 67.3026 50.0147 67.4134V68.629H49.8312V67.4134C49.8312 67.235 49.7904 67.0955 49.7089 66.9948C49.6273 66.8929 49.5031 66.8419 49.3362 66.8419C49.2126 66.8419 49.0966 66.8738 48.9883 66.9375C48.8813 66.9999 48.7857 67.0872 48.7016 67.1993V68.629H48.5181V65.848H48.7016V67.0483ZM51.954 67.486C51.954 67.3841 51.9393 67.293 51.91 67.2127C51.882 67.1312 51.8418 67.0624 51.7896 67.0063C51.7373 66.9502 51.6749 66.9075 51.6023 66.8782C51.5309 66.8477 51.4519 66.8324 51.3653 66.8324C51.2671 66.8324 51.1792 66.8477 51.1015 66.8782C51.0238 66.9088 50.9562 66.9528 50.8989 67.0101C50.8428 67.0675 50.7976 67.1363 50.7632 67.2165C50.7288 67.2968 50.7058 67.3867 50.6944 67.486H51.954ZM50.6848 67.6026V67.639C50.6848 67.7817 50.7014 67.9072 50.7345 68.0155C50.7676 68.1238 50.8148 68.2149 50.876 68.2888C50.9371 68.3614 51.011 68.4162 51.0977 68.4532C51.1843 68.4901 51.2812 68.5086 51.3882 68.5086C51.4838 68.5086 51.5666 68.4984 51.6367 68.478C51.7068 68.4564 51.7654 68.4328 51.8125 68.4073C51.8609 68.3806 51.8992 68.357 51.9272 68.3366C51.9552 68.3149 51.9756 68.3041 51.9884 68.3041C52.0049 68.3041 52.0177 68.3105 52.0266 68.3232L52.0763 68.3844C52.0457 68.4226 52.0049 68.4583 51.954 68.4914C51.9043 68.5245 51.8482 68.5532 51.7858 68.5774C51.7246 68.6004 51.6583 68.6188 51.587 68.6329C51.5169 68.6469 51.4462 68.6539 51.3748 68.6539C51.2448 68.6539 51.1263 68.6316 51.0193 68.587C50.9123 68.5411 50.8205 68.4748 50.7441 68.3882C50.6676 68.3016 50.6084 68.1958 50.5663 68.0709C50.5255 67.9448 50.5052 67.8008 50.5052 67.639C50.5052 67.5026 50.5243 67.3771 50.5625 67.2624C50.602 67.1465 50.6581 67.0471 50.7307 66.9642C50.8046 66.8801 50.8944 66.8145 51.0002 66.7674C51.1072 66.7202 51.2283 66.6967 51.3633 66.6967C51.4704 66.6967 51.5698 66.7151 51.6615 66.7521C51.7533 66.789 51.8329 66.8432 51.9004 66.9146C51.968 66.9846 52.0208 67.0713 52.0591 67.1745C52.0986 67.2777 52.1183 67.3962 52.1183 67.53C52.1183 67.558 52.1145 67.5772 52.1069 67.5873C52.0992 67.5975 52.0865 67.6026 52.0686 67.6026H50.6848ZM54.9298 66.9814C54.9234 66.9878 54.9171 66.9936 54.9107 66.9987C54.9056 67.0025 54.8979 67.0044 54.8877 67.0044C54.875 67.0044 54.8578 66.9961 54.8361 66.9795C54.8145 66.9617 54.7852 66.9426 54.7482 66.9222C54.7113 66.9018 54.6648 66.8833 54.6087 66.8668C54.5539 66.8489 54.487 66.84 54.408 66.84C54.2984 66.84 54.2009 66.8598 54.1156 66.8993C54.0315 66.9375 53.9601 66.9929 53.9015 67.0655C53.8429 67.1382 53.7983 67.2261 53.7677 67.3293C53.7384 67.4325 53.7237 67.5485 53.7237 67.6772C53.7237 67.811 53.739 67.9295 53.7696 68.0327C53.8015 68.1359 53.8461 68.2232 53.9034 68.2945C53.9607 68.3646 54.0302 68.4181 54.1117 68.4551C54.1933 68.492 54.2838 68.5105 54.3832 68.5105C54.4749 68.5105 54.5514 68.4997 54.6125 68.478C54.675 68.4564 54.7259 68.4328 54.7654 68.4073C54.8062 68.3818 54.8381 68.3583 54.861 68.3366C54.8839 68.3149 54.903 68.3041 54.9183 68.3041C54.9336 68.3041 54.9464 68.3105 54.9566 68.3232L55.0043 68.3844C54.975 68.4226 54.9381 68.4583 54.8935 68.4914C54.8489 68.5245 54.7986 68.5532 54.7425 68.5774C54.6864 68.6016 54.6253 68.6201 54.559 68.6329C54.494 68.6469 54.4258 68.6539 54.3545 68.6539C54.2334 68.6539 54.1226 68.6322 54.0219 68.5889C53.9225 68.5443 53.8365 68.4806 53.7639 68.3978C53.6925 68.3137 53.6365 68.2111 53.5957 68.09C53.5562 67.969 53.5364 67.8314 53.5364 67.6772C53.5364 67.5319 53.5555 67.3994 53.5938 67.2796C53.632 67.1598 53.6881 67.0566 53.762 66.97C53.8359 66.8833 53.9257 66.8164 54.0315 66.7693C54.1385 66.7209 54.2608 66.6967 54.3984 66.6967C54.522 66.6967 54.6316 66.7164 54.7272 66.7559C54.8228 66.7954 54.9062 66.8489 54.9776 66.9165L54.9298 66.9814ZM55.6377 67.0483C55.7256 66.9413 55.8256 66.8559 55.9378 66.7922C56.0512 66.7285 56.178 66.6967 56.3181 66.6967C56.4226 66.6967 56.5144 66.7132 56.5934 66.7464C56.6736 66.7795 56.7399 66.8273 56.7921 66.8897C56.8444 66.9521 56.8839 67.0273 56.9106 67.1152C56.9374 67.2032 56.9508 67.3026 56.9508 67.4134V68.629H56.7673V67.4134C56.7673 67.235 56.7265 67.0955 56.645 66.9948C56.5634 66.8929 56.4392 66.8419 56.2722 66.8419C56.1486 66.8419 56.0327 66.8738 55.9244 66.9375C55.8173 66.9999 55.7218 67.0872 55.6377 67.1993V68.629H55.4542V65.848H55.6377V67.0483ZM58.6205 67.7097C58.4396 67.716 58.2835 67.7307 58.1523 67.7536C58.0223 67.7753 57.9146 67.8052 57.8292 67.8435C57.7451 67.8817 57.6827 67.9276 57.6419 67.9811C57.6012 68.0333 57.5808 68.0932 57.5808 68.1607C57.5808 68.2245 57.591 68.2799 57.6114 68.327C57.633 68.3729 57.6611 68.4111 57.6955 68.4417C57.7311 68.471 57.7719 68.4927 57.8178 68.5067C57.8637 68.5207 57.9114 68.5277 57.9611 68.5277C58.035 68.5277 58.1026 68.5201 58.1637 68.5048C58.2262 68.4882 58.2835 68.4659 58.3358 68.4379C58.3893 68.4086 58.439 68.3742 58.4848 68.3347C58.5307 68.2952 58.5759 68.2525 58.6205 68.2066V67.7097ZM57.5024 66.9967C57.6018 66.8973 57.7063 66.8222 57.8159 66.7712C57.9255 66.7202 58.0497 66.6947 58.1886 66.6947C58.2905 66.6947 58.3797 66.7113 58.4562 66.7444C58.5326 66.7763 58.5957 66.8228 58.6454 66.884C58.6964 66.9439 58.7346 67.0171 58.7601 67.1038C58.7856 67.1891 58.7983 67.2847 58.7983 67.3905V68.629H58.7257C58.6874 68.629 58.6639 68.6112 58.655 68.5755L58.6282 68.3309C58.5759 68.3818 58.5237 68.4277 58.4715 68.4685C58.4205 68.5093 58.367 68.5437 58.3109 68.5717C58.2548 68.5997 58.1943 68.6214 58.1293 68.6367C58.0643 68.652 57.993 68.6596 57.9153 68.6596C57.8503 68.6596 57.7872 68.6501 57.726 68.6309C57.6649 68.6118 57.6101 68.5825 57.5617 68.543C57.5145 68.5035 57.4763 68.4532 57.447 68.392C57.4189 68.3296 57.4049 68.255 57.4049 68.1684C57.4049 68.0881 57.4279 68.0136 57.4737 67.9448C57.5196 67.876 57.5916 67.8161 57.6897 67.7651C57.7878 67.7141 57.9133 67.6734 58.0663 67.6428C58.2204 67.6122 58.4052 67.5944 58.6205 67.5893V67.3905C58.6205 67.2146 58.5823 67.0796 58.5059 66.9853C58.4307 66.8897 58.3186 66.8419 58.1695 66.8419C58.0777 66.8419 57.9994 66.8547 57.9344 66.8801C57.8707 66.9056 57.8165 66.9337 57.7719 66.9642C57.7273 66.9948 57.691 67.0229 57.663 67.0483C57.6349 67.0738 57.6114 67.0866 57.5922 67.0866C57.5782 67.0866 57.5668 67.0834 57.5578 67.077C57.5489 67.0706 57.5413 67.0624 57.5349 67.0522L57.5024 66.9967ZM59.4075 68.629V66.7272H59.5088C59.5407 66.7272 59.5592 66.7432 59.5643 66.775L59.5815 67.0503C59.6554 66.9445 59.7401 66.8591 59.8357 66.7941C59.9313 66.7292 60.0389 66.6967 60.1587 66.6967C60.2976 66.6967 60.4085 66.7368 60.4913 66.8171C60.5754 66.8973 60.6321 67.0088 60.6614 67.1516C60.6843 67.0738 60.7162 67.0063 60.757 66.949C60.799 66.8916 60.8468 66.8445 60.9003 66.8075C60.9538 66.7693 61.0118 66.7413 61.0742 66.7234C61.1379 66.7056 61.2029 66.6967 61.2692 66.6967C61.3635 66.6967 61.4482 66.7126 61.5234 66.7444C61.5986 66.775 61.6623 66.8209 61.7145 66.8821C61.7668 66.9432 61.8069 67.0184 61.835 67.1076C61.863 67.1968 61.877 67.2987 61.877 67.4134V68.629H61.6954V67.4134C61.6954 67.2274 61.6553 67.0859 61.575 66.9891C61.4947 66.891 61.3801 66.8419 61.231 66.8419C61.1647 66.8419 61.101 66.854 61.0398 66.8782C60.9799 66.9024 60.9264 66.9388 60.8793 66.9872C60.8334 67.0343 60.7965 67.0936 60.7684 67.1649C60.7417 67.2363 60.7283 67.3191 60.7283 67.4134V68.629H60.5448V67.4134C60.5448 67.2286 60.5078 67.0872 60.4339 66.9891C60.3613 66.891 60.2543 66.8419 60.1128 66.8419C60.0096 66.8419 59.914 66.8725 59.8261 66.9337C59.7382 66.9948 59.6598 67.0796 59.591 67.1879V68.629H59.4075ZM62.6671 68.2143C62.7041 68.2691 62.7423 68.3156 62.7818 68.3538C62.8226 68.3907 62.8652 68.4213 62.9098 68.4455C62.9544 68.4685 63.0016 68.485 63.0513 68.4952C63.1023 68.5054 63.1558 68.5105 63.2118 68.5105C63.324 68.5105 63.4221 68.4901 63.5062 68.4494C63.5903 68.4086 63.6604 68.3512 63.7164 68.2773C63.7738 68.2022 63.8165 68.113 63.8445 68.0098C63.8738 67.9053 63.8885 67.7906 63.8885 67.6657C63.8885 67.3828 63.8362 67.1751 63.7317 67.0426C63.6272 66.9088 63.4775 66.8419 63.2826 66.8419C63.1564 66.8419 63.0424 66.8744 62.9404 66.9394C62.8385 67.0044 62.7474 67.0949 62.6671 67.2108V68.2143ZM62.6595 67.0694C62.7436 66.9547 62.8417 66.8636 62.9538 66.796C63.0672 66.7285 63.194 66.6947 63.3342 66.6947C63.5673 66.6947 63.7489 66.7757 63.8789 66.9375C64.0101 67.0993 64.0758 67.3421 64.0758 67.6657C64.0758 67.8046 64.0573 67.9346 64.0203 68.0556C63.9847 68.1754 63.9311 68.2799 63.8598 68.3691C63.7897 68.457 63.7031 68.5265 63.5998 68.5774C63.4979 68.6284 63.38 68.6539 63.2462 68.6539C63.1175 68.6539 63.006 68.6303 62.9118 68.5832C62.8175 68.536 62.7359 68.4666 62.6671 68.3748V69.3018H62.4836V66.7272H62.5849C62.6168 66.7272 62.6352 66.7432 62.6403 66.775L62.6595 67.0694Z" fill="#C0CFF5"/>
<path d="M43.4384 21.6128L45.1243 24.4142L45.1479 24.4534L45.1925 24.4638L48.3778 25.2015L46.2345 27.6706L46.2045 27.7052L46.2084 27.7508L46.4911 31.0082L43.4805 29.7327L43.4384 29.7149L43.3962 29.7327L40.3856 31.0082L40.6683 27.7508L40.6723 27.7052L40.6423 27.6706L38.4989 25.2015L41.6842 24.4638L41.7288 24.4534L41.7524 24.4142L43.4384 21.6128Z" fill="#E8C186" stroke="#F2D5A9" stroke-width="0.216129"/>
<path d="M55.0399 21.6128L56.7259 24.4142L56.7495 24.4534L56.7941 24.4638L59.9794 25.2015L57.8361 27.6706L57.806 27.7052L57.81 27.7508L58.0927 31.0082L55.0821 29.7327L55.0399 29.7149L54.9978 29.7327L51.9872 31.0082L52.2699 27.7508L52.2738 27.7052L52.2438 27.6706L50.1005 25.2015L53.2858 24.4638L53.3304 24.4534L53.354 24.4142L55.0399 21.6128Z" fill="#E8C186" stroke="#F2D5A9" stroke-width="0.216129"/>
<path d="M40.6488 44.4531V45.4701H36.7686V38.8457H38.0009V44.4531H40.6488ZM42.7656 39.8261V41.6631H45.0837V42.6114H42.7656V44.4851H45.7068V45.4701H41.5287V38.8457H45.7068V39.8261H42.7656ZM52.475 38.8457L49.7996 45.4701H48.6863L46.0109 38.8457H47.0004C47.1073 38.8457 47.1944 38.8716 47.2616 38.9236C47.3288 38.9755 47.3792 39.0427 47.4128 39.1251L48.9749 43.1658C49.0269 43.2971 49.0757 43.4421 49.1215 43.601C49.1704 43.7567 49.2162 43.9201 49.259 44.0912C49.2956 43.9201 49.3353 43.7567 49.3781 43.601C49.4208 43.4421 49.4682 43.2971 49.5201 43.1658L51.0731 39.1251C51.0976 39.0549 51.1449 38.9908 51.2151 38.9327C51.2884 38.8747 51.377 38.8457 51.4809 38.8457H52.475ZM54.3976 39.8261V41.6631H56.7157V42.6114H54.3976V44.4851H57.3387V45.4701H53.1606V38.8457H57.3387V39.8261H54.3976ZM62.3111 44.4531V45.4701H58.4308V38.8457H59.6632V44.4531H62.3111ZM51.0789 58.4164C51.2011 58.4164 51.2973 58.4515 51.3675 58.5218C51.4408 58.589 51.4775 58.6791 51.4775 58.7921V59.4701H46.9329V59.0944C46.9329 59.0181 46.9482 58.9387 46.9787 58.8562C47.0123 58.7707 47.0642 58.6943 47.1345 58.6272L49.1456 56.6114C49.3136 56.4404 49.4633 56.277 49.5946 56.1212C49.729 55.9655 49.8404 55.8112 49.929 55.6585C50.0176 55.5058 50.0848 55.3516 50.1306 55.1958C50.1794 55.037 50.2039 54.8706 50.2039 54.6965C50.2039 54.5377 50.181 54.3987 50.1352 54.2796C50.0894 54.1574 50.0237 54.0551 49.9382 53.9727C49.8557 53.8902 49.7549 53.8291 49.6358 53.7894C49.5198 53.7467 49.3884 53.7253 49.2418 53.7253C49.1074 53.7253 48.9822 53.7451 48.8662 53.7848C48.7532 53.8215 48.6524 53.8749 48.5638 53.9452C48.4752 54.0124 48.4004 54.0918 48.3393 54.1834C48.2783 54.275 48.2324 54.3758 48.2019 54.4858C48.15 54.6262 48.0828 54.7194 48.0003 54.7652C47.9179 54.811 47.7988 54.8217 47.643 54.7973L47.0474 54.6919C47.0932 54.3743 47.1818 54.0963 47.3131 53.8581C47.4445 53.6169 47.6079 53.4168 47.8033 53.258C48.0019 53.0961 48.2279 52.9755 48.4814 52.8961C48.7379 52.8136 49.0128 52.7724 49.306 52.7724C49.6114 52.7724 49.8908 52.8182 50.1443 52.9098C50.3978 52.9984 50.6147 53.1251 50.7949 53.2901C50.975 53.455 51.1155 53.6535 51.2163 53.8856C51.3171 54.1177 51.3675 54.3758 51.3675 54.6598C51.3675 54.9042 51.3309 55.1302 51.2576 55.3379C51.1873 55.5455 51.0911 55.7441 50.9689 55.9334C50.8498 56.1228 50.7093 56.306 50.5475 56.4832C50.3856 56.6603 50.2161 56.8405 50.039 57.0237L48.5455 58.5493C48.689 58.5065 48.831 58.4744 48.9715 58.4531C49.1151 58.4286 49.251 58.4164 49.3793 58.4164H51.0789Z" fill="white"/>
</svg>
