<svg width="56" height="68" viewBox="0 0 56 68" fill="none" xmlns="http://www.w3.org/2000/svg">
<path d="M51.2174 4.9369L28.7825 1.13005C28.2752 1.04396 27.757 1.04396 27.2497 1.13005L4.81477 4.9369C2.61187 5.3107 0.999973 7.21915 0.999973 9.45354V47.8877C0.999973 49.4354 1.78135 50.8784 3.07738 51.7242L25.5123 66.366C27.0338 67.3589 28.9984 67.3589 30.5199 66.366L52.9548 51.7242C54.2509 50.8784 55.0322 49.4354 55.0322 47.8877V9.45354C55.0322 7.21915 53.4203 5.3107 51.2174 4.9369Z" fill="#5678CE" stroke="#849FE4" stroke-width="1.08065"/>
<path d="M13.8616 52.5146V53.6289H13.6667V52.5146L12.6651 50.9244H12.8371C12.855 50.9244 12.8696 50.9288 12.8811 50.9377C12.8926 50.9454 12.9021 50.9568 12.9098 50.9721L13.6839 52.2145C13.7004 52.2438 13.7157 52.2725 13.7297 52.3005C13.7438 52.3273 13.7559 52.354 13.7661 52.3808C13.7763 52.354 13.7877 52.3273 13.8005 52.3005C13.8132 52.2725 13.8279 52.2438 13.8444 52.2145L14.6185 50.9721C14.6249 50.9581 14.6338 50.9467 14.6453 50.9377C14.658 50.9288 14.6733 50.9244 14.6912 50.9244H14.8632L13.8616 52.5146ZM15.5637 51.6965C15.7001 51.6965 15.8217 51.7201 15.9288 51.7673C16.0371 51.8131 16.1282 51.8788 16.2021 51.9641C16.276 52.0495 16.3321 52.1527 16.3703 52.2738C16.4098 52.3935 16.4295 52.528 16.4295 52.6771C16.4295 52.8261 16.4098 52.9606 16.3703 53.0804C16.3321 53.2001 16.276 53.3027 16.2021 53.3881C16.1282 53.4735 16.0371 53.5391 15.9288 53.5849C15.8217 53.6308 15.7001 53.6538 15.5637 53.6538C15.4274 53.6538 15.305 53.6308 15.1967 53.5849C15.0897 53.5391 14.9986 53.4735 14.9234 53.3881C14.8495 53.3027 14.7928 53.2001 14.7533 53.0804C14.7151 52.9606 14.696 52.8261 14.696 52.6771C14.696 52.528 14.7151 52.3935 14.7533 52.2738C14.7928 52.1527 14.8495 52.0495 14.9234 51.9641C14.9986 51.8788 15.0897 51.8131 15.1967 51.7673C15.305 51.7201 15.4274 51.6965 15.5637 51.6965ZM15.5637 53.5104C15.6771 53.5104 15.7759 53.4913 15.86 53.4531C15.9453 53.4136 16.0161 53.3575 16.0721 53.2849C16.1295 53.2122 16.1722 53.1249 16.2002 53.023C16.2282 52.9198 16.2422 52.8045 16.2422 52.6771C16.2422 52.5509 16.2282 52.4362 16.2002 52.333C16.1722 52.2298 16.1295 52.1419 16.0721 52.0692C16.0161 51.9953 15.9453 51.9386 15.86 51.8991C15.7759 51.8596 15.6771 51.8399 15.5637 51.8399C15.4503 51.8399 15.3509 51.8596 15.2655 51.8991C15.1814 51.9386 15.1107 51.9953 15.0534 52.0692C14.9973 52.1419 14.9546 52.2298 14.9253 52.333C14.8973 52.4362 14.8833 52.5509 14.8833 52.6771C14.8833 52.8045 14.8973 52.9198 14.9253 53.023C14.9546 53.1249 14.9973 53.2122 15.0534 53.2849C15.1107 53.3575 15.1814 53.4136 15.2655 53.4531C15.3509 53.4913 15.4503 53.5104 15.5637 53.5104ZM18.4178 51.7271V53.6289H18.3165C18.2846 53.6289 18.2662 53.6123 18.2611 53.5792L18.2439 53.2963C18.1559 53.4059 18.054 53.4938 17.938 53.5601C17.8234 53.6264 17.6953 53.6595 17.5539 53.6595C17.4481 53.6595 17.3557 53.6429 17.2767 53.6098C17.1977 53.5767 17.1321 53.5289 17.0799 53.4664C17.0276 53.404 16.9881 53.3288 16.9614 53.2409C16.9346 53.153 16.9212 53.0536 16.9212 52.9427V51.7271H17.1047V52.9427C17.1047 53.1211 17.1455 53.2613 17.227 53.3632C17.3086 53.4639 17.4328 53.5142 17.5997 53.5142C17.7233 53.5142 17.8387 53.483 17.9457 53.4206C18.054 53.3569 18.1502 53.2689 18.2343 53.1568V51.7271H18.4178ZM21.1464 52.7095C20.9655 52.7159 20.8094 52.7306 20.6781 52.7535C20.5481 52.7752 20.4405 52.8051 20.3551 52.8433C20.271 52.8816 20.2086 52.9274 20.1678 52.981C20.127 53.0332 20.1066 53.0931 20.1066 53.1606C20.1066 53.2243 20.1168 53.2798 20.1372 53.3269C20.1589 53.3728 20.1869 53.411 20.2213 53.4416C20.257 53.4709 20.2978 53.4926 20.3436 53.5066C20.3895 53.5206 20.4373 53.5276 20.487 53.5276C20.5609 53.5276 20.6284 53.52 20.6896 53.5047C20.752 53.4881 20.8094 53.4658 20.8616 53.4378C20.9151 53.4085 20.9648 53.3741 21.0107 53.3346C21.0566 53.2951 21.1018 53.2524 21.1464 53.2065V52.7095ZM20.0283 51.9966C20.1276 51.8972 20.2321 51.822 20.3417 51.7711C20.4513 51.7201 20.5755 51.6946 20.7144 51.6946C20.8164 51.6946 20.9056 51.7112 20.982 51.7443C21.0585 51.7762 21.1215 51.8227 21.1712 51.8838C21.2222 51.9437 21.2604 52.017 21.2859 52.1037C21.3114 52.189 21.3241 52.2846 21.3241 52.3904V53.6289H21.2515C21.2133 53.6289 21.1897 53.6111 21.1808 53.5754L21.154 53.3307C21.1018 53.3817 21.0495 53.4276 20.9973 53.4684C20.9463 53.5091 20.8928 53.5435 20.8368 53.5716C20.7807 53.5996 20.7202 53.6213 20.6552 53.6366C20.5902 53.6518 20.5188 53.6595 20.4411 53.6595C20.3761 53.6595 20.313 53.6499 20.2519 53.6308C20.1907 53.6117 20.1359 53.5824 20.0875 53.5429C20.0404 53.5034 20.0021 53.4531 19.9728 53.3919C19.9448 53.3295 19.9308 53.2549 19.9308 53.1683C19.9308 53.088 19.9537 53.0135 19.9996 52.9446C20.0455 52.8758 20.1175 52.8159 20.2156 52.765C20.3137 52.714 20.4392 52.6732 20.5921 52.6427C20.7463 52.6121 20.931 52.5942 21.1464 52.5891V52.3904C21.1464 52.2145 21.1082 52.0794 21.0317 51.9851C20.9565 51.8896 20.8444 51.8418 20.6953 51.8418C20.6036 51.8418 20.5252 51.8545 20.4602 51.88C20.3965 51.9055 20.3424 51.9335 20.2978 51.9641C20.2532 51.9947 20.2168 52.0227 20.1888 52.0482C20.1608 52.0737 20.1372 52.0865 20.1181 52.0865C20.1041 52.0865 20.0926 52.0833 20.0837 52.0769C20.0748 52.0705 20.0671 52.0622 20.0607 52.052L20.0283 51.9966ZM22.1073 52.1858C22.1366 52.1081 22.1698 52.0393 22.2067 51.9794C22.2449 51.9183 22.2883 51.8666 22.3367 51.8246C22.3864 51.7825 22.4412 51.7507 22.5011 51.729C22.5622 51.7061 22.6298 51.6946 22.7037 51.6946C22.7432 51.6946 22.782 51.6984 22.8203 51.7061C22.8585 51.7125 22.8922 51.7246 22.9216 51.7424L22.9063 51.8686C22.8999 51.8889 22.8878 51.8991 22.8699 51.8991C22.8547 51.8991 22.8311 51.8947 22.7992 51.8858C22.7686 51.8768 22.7279 51.8724 22.6769 51.8724C22.603 51.8724 22.5374 51.8838 22.48 51.9068C22.424 51.9284 22.373 51.9616 22.3271 52.0062C22.2825 52.0508 22.243 52.1062 22.2086 52.1725C22.1755 52.2374 22.1449 52.3126 22.1169 52.398V53.6289H21.9334V51.7271H22.0309C22.0525 51.7271 22.0678 51.7316 22.0767 51.7405C22.0857 51.7494 22.0914 51.7647 22.0939 51.7864L22.1073 52.1858ZM24.5106 52.4859C24.5106 52.384 24.496 52.2929 24.4667 52.2126C24.4386 52.131 24.3985 52.0622 24.3463 52.0062C24.294 51.9501 24.2316 51.9074 24.1589 51.8781C24.0876 51.8475 24.0086 51.8322 23.9219 51.8322C23.8238 51.8322 23.7359 51.8475 23.6582 51.8781C23.5804 51.9087 23.5129 51.9527 23.4556 52.01C23.3995 52.0673 23.3543 52.1361 23.3199 52.2164C23.2855 52.2967 23.2625 52.3865 23.2511 52.4859H24.5106ZM23.2415 52.6025V52.6388C23.2415 52.7815 23.2581 52.9071 23.2912 53.0154C23.3243 53.1237 23.3715 53.2148 23.4326 53.2887C23.4938 53.3613 23.5677 53.4161 23.6543 53.4531C23.741 53.49 23.8378 53.5085 23.9449 53.5085C24.0404 53.5085 24.1233 53.4983 24.1933 53.4779C24.2634 53.4562 24.322 53.4327 24.3692 53.4072C24.4176 53.3804 24.4558 53.3569 24.4839 53.3365C24.5119 53.3148 24.5323 53.304 24.545 53.304C24.5616 53.304 24.5743 53.3103 24.5833 53.3231L24.633 53.3843C24.6024 53.4225 24.5616 53.4582 24.5106 53.4913C24.4609 53.5244 24.4049 53.5531 24.3424 53.5773C24.2813 53.6002 24.215 53.6187 24.1436 53.6327C24.0736 53.6467 24.0028 53.6538 23.9315 53.6538C23.8015 53.6538 23.683 53.6315 23.576 53.5869C23.4689 53.541 23.3772 53.4747 23.3007 53.3881C23.2243 53.3014 23.165 53.1957 23.123 53.0708C23.0822 52.9446 23.0618 52.8007 23.0618 52.6388C23.0618 52.5025 23.0809 52.377 23.1192 52.2623C23.1587 52.1463 23.2147 52.0469 23.2874 51.9641C23.3613 51.88 23.4511 51.8144 23.5569 51.7673C23.6639 51.7201 23.785 51.6965 23.92 51.6965C24.0271 51.6965 24.1264 51.715 24.2182 51.752C24.3099 51.7889 24.3896 51.8431 24.4571 51.9144C24.5246 51.9845 24.5775 52.0712 24.6158 52.1744C24.6553 52.2776 24.675 52.3961 24.675 52.5299C24.675 52.5579 24.6712 52.577 24.6635 52.5872C24.6559 52.5974 24.6431 52.6025 24.6253 52.6025H23.2415ZM26.7277 53.6595C26.599 53.6595 26.4983 53.6238 26.4257 53.5525C26.3543 53.4811 26.3186 53.3709 26.3186 53.2218V51.9221H26.0453C26.0313 51.9221 26.0198 51.9183 26.0109 51.9106C26.002 51.903 25.9975 51.8921 25.9975 51.8781V51.8074L26.3225 51.7845L26.3683 51.104C26.3709 51.0926 26.376 51.0824 26.3836 51.0734C26.3913 51.0645 26.4021 51.0601 26.4161 51.0601H26.5021V51.7864H27.1023V51.9221H26.5021V53.2122C26.5021 53.2645 26.5085 53.3097 26.5212 53.3479C26.5353 53.3849 26.5537 53.4155 26.5767 53.4397C26.6009 53.4639 26.6289 53.4817 26.6608 53.4932C26.6926 53.5047 26.727 53.5104 26.764 53.5104C26.8099 53.5104 26.8494 53.504 26.8825 53.4913C26.9156 53.4773 26.9443 53.4626 26.9685 53.4473C26.9927 53.4308 27.0125 53.4161 27.0278 53.4034C27.043 53.3894 27.0551 53.3823 27.0641 53.3823C27.0743 53.3823 27.0845 53.3887 27.0946 53.4015L27.1443 53.4817C27.0959 53.5353 27.0341 53.5786 26.9589 53.6117C26.885 53.6436 26.8079 53.6595 26.7277 53.6595ZM27.7016 52.0482C27.7895 51.9412 27.8895 51.8558 28.0017 51.7921C28.1151 51.7284 28.2419 51.6965 28.382 51.6965C28.4865 51.6965 28.5783 51.7131 28.6573 51.7462C28.7375 51.7794 28.8038 51.8271 28.856 51.8896C28.9083 51.952 28.9478 52.0272 28.9745 52.1151C29.0013 52.203 29.0147 52.3024 29.0147 52.4133V53.6289H28.8312V52.4133C28.8312 52.2349 28.7904 52.0954 28.7089 51.9947C28.6273 51.8928 28.5031 51.8418 28.3362 51.8418C28.2126 51.8418 28.0966 51.8737 27.9883 51.9374C27.8813 51.9998 27.7857 52.0871 27.7016 52.1992V53.6289H27.5181V50.8479H27.7016V52.0482ZM30.954 52.4859C30.954 52.384 30.9393 52.2929 30.91 52.2126C30.882 52.131 30.8418 52.0622 30.7896 52.0062C30.7373 51.9501 30.6749 51.9074 30.6023 51.8781C30.5309 51.8475 30.4519 51.8322 30.3653 51.8322C30.2671 51.8322 30.1792 51.8475 30.1015 51.8781C30.0238 51.9087 29.9562 51.9527 29.8989 52.01C29.8428 52.0673 29.7976 52.1361 29.7632 52.2164C29.7288 52.2967 29.7058 52.3865 29.6944 52.4859H30.954ZM29.6848 52.6025V52.6388C29.6848 52.7815 29.7014 52.9071 29.7345 53.0154C29.7676 53.1237 29.8148 53.2148 29.876 53.2887C29.9371 53.3613 30.011 53.4161 30.0977 53.4531C30.1843 53.49 30.2812 53.5085 30.3882 53.5085C30.4838 53.5085 30.5666 53.4983 30.6367 53.4779C30.7068 53.4562 30.7654 53.4327 30.8125 53.4072C30.8609 53.3804 30.8992 53.3569 30.9272 53.3365C30.9552 53.3148 30.9756 53.304 30.9884 53.304C31.0049 53.304 31.0177 53.3103 31.0266 53.3231L31.0763 53.3843C31.0457 53.4225 31.0049 53.4582 30.954 53.4913C30.9043 53.5244 30.8482 53.5531 30.7858 53.5773C30.7246 53.6002 30.6583 53.6187 30.587 53.6327C30.5169 53.6467 30.4462 53.6538 30.3748 53.6538C30.2448 53.6538 30.1263 53.6315 30.0193 53.5869C29.9123 53.541 29.8205 53.4747 29.7441 53.3881C29.6676 53.3014 29.6084 53.1957 29.5663 53.0708C29.5255 52.9446 29.5052 52.8007 29.5052 52.6388C29.5052 52.5025 29.5243 52.377 29.5625 52.2623C29.602 52.1463 29.6581 52.0469 29.7307 51.9641C29.8046 51.88 29.8944 51.8144 30.0002 51.7673C30.1072 51.7201 30.2283 51.6965 30.3633 51.6965C30.4704 51.6965 30.5698 51.715 30.6615 51.752C30.7533 51.7889 30.8329 51.8431 30.9004 51.9144C30.968 51.9845 31.0208 52.0712 31.0591 52.1744C31.0986 52.2776 31.1183 52.3961 31.1183 52.5299C31.1183 52.5579 31.1145 52.577 31.1069 52.5872C31.0992 52.5974 31.0865 52.6025 31.0686 52.6025H29.6848ZM33.9298 51.9813C33.9234 51.9877 33.9171 51.9934 33.9107 51.9985C33.9056 52.0024 33.8979 52.0043 33.8877 52.0043C33.875 52.0043 33.8578 51.996 33.8361 51.9794C33.8145 51.9616 33.7852 51.9425 33.7482 51.9221C33.7113 51.9017 33.6648 51.8832 33.6087 51.8666C33.5539 51.8488 33.487 51.8399 33.408 51.8399C33.2984 51.8399 33.2009 51.8596 33.1156 51.8991C33.0315 51.9374 32.9601 51.9928 32.9015 52.0654C32.8429 52.1381 32.7983 52.226 32.7677 52.3292C32.7384 52.4324 32.7237 52.5484 32.7237 52.6771C32.7237 52.8109 32.739 52.9294 32.7696 53.0326C32.8015 53.1358 32.8461 53.2231 32.9034 53.2944C32.9607 53.3645 33.0302 53.418 33.1117 53.455C33.1933 53.4919 33.2838 53.5104 33.3832 53.5104C33.4749 53.5104 33.5514 53.4996 33.6125 53.4779C33.675 53.4562 33.7259 53.4327 33.7654 53.4072C33.8062 53.3817 33.8381 53.3581 33.861 53.3365C33.8839 53.3148 33.903 53.304 33.9183 53.304C33.9336 53.304 33.9464 53.3103 33.9566 53.3231L34.0043 53.3843C33.975 53.4225 33.9381 53.4582 33.8935 53.4913C33.8489 53.5244 33.7986 53.5531 33.7425 53.5773C33.6864 53.6015 33.6253 53.62 33.559 53.6327C33.494 53.6467 33.4258 53.6538 33.3545 53.6538C33.2334 53.6538 33.1226 53.6321 33.0219 53.5888C32.9225 53.5442 32.8365 53.4805 32.7639 53.3976C32.6925 53.3135 32.6365 53.211 32.5957 53.0899C32.5562 52.9689 32.5364 52.8312 32.5364 52.6771C32.5364 52.5318 32.5555 52.3993 32.5938 52.2795C32.632 52.1597 32.6881 52.0565 32.762 51.9699C32.8359 51.8832 32.9257 51.8163 33.0315 51.7692C33.1385 51.7207 33.2608 51.6965 33.3984 51.6965C33.522 51.6965 33.6316 51.7163 33.7272 51.7558C33.8228 51.7953 33.9062 51.8488 33.9776 51.9163L33.9298 51.9813ZM34.6377 52.0482C34.7256 51.9412 34.8256 51.8558 34.9378 51.7921C35.0512 51.7284 35.178 51.6965 35.3181 51.6965C35.4226 51.6965 35.5144 51.7131 35.5934 51.7462C35.6736 51.7794 35.7399 51.8271 35.7921 51.8896C35.8444 51.952 35.8839 52.0272 35.9106 52.1151C35.9374 52.203 35.9508 52.3024 35.9508 52.4133V53.6289H35.7673V52.4133C35.7673 52.2349 35.7265 52.0954 35.645 51.9947C35.5634 51.8928 35.4392 51.8418 35.2722 51.8418C35.1486 51.8418 35.0327 51.8737 34.9244 51.9374C34.8173 51.9998 34.7218 52.0871 34.6377 52.1992V53.6289H34.4542V50.8479H34.6377V52.0482ZM37.6205 52.7095C37.4396 52.7159 37.2835 52.7306 37.1523 52.7535C37.0223 52.7752 36.9146 52.8051 36.8292 52.8433C36.7451 52.8816 36.6827 52.9274 36.6419 52.981C36.6012 53.0332 36.5808 53.0931 36.5808 53.1606C36.5808 53.2243 36.591 53.2798 36.6114 53.3269C36.633 53.3728 36.6611 53.411 36.6955 53.4416C36.7311 53.4709 36.7719 53.4926 36.8178 53.5066C36.8637 53.5206 36.9114 53.5276 36.9611 53.5276C37.035 53.5276 37.1026 53.52 37.1637 53.5047C37.2262 53.4881 37.2835 53.4658 37.3358 53.4378C37.3893 53.4085 37.439 53.3741 37.4848 53.3346C37.5307 53.2951 37.5759 53.2524 37.6205 53.2065V52.7095ZM36.5024 51.9966C36.6018 51.8972 36.7063 51.822 36.8159 51.7711C36.9255 51.7201 37.0497 51.6946 37.1886 51.6946C37.2905 51.6946 37.3797 51.7112 37.4562 51.7443C37.5326 51.7762 37.5957 51.8227 37.6454 51.8838C37.6964 51.9437 37.7346 52.017 37.7601 52.1037C37.7856 52.189 37.7983 52.2846 37.7983 52.3904V53.6289H37.7257C37.6874 53.6289 37.6639 53.6111 37.655 53.5754L37.6282 53.3307C37.5759 53.3817 37.5237 53.4276 37.4715 53.4684C37.4205 53.5091 37.367 53.5435 37.3109 53.5716C37.2548 53.5996 37.1943 53.6213 37.1293 53.6366C37.0643 53.6518 36.993 53.6595 36.9153 53.6595C36.8503 53.6595 36.7872 53.6499 36.726 53.6308C36.6649 53.6117 36.6101 53.5824 36.5617 53.5429C36.5145 53.5034 36.4763 53.4531 36.447 53.3919C36.4189 53.3295 36.4049 53.2549 36.4049 53.1683C36.4049 53.088 36.4279 53.0135 36.4737 52.9446C36.5196 52.8758 36.5916 52.8159 36.6897 52.765C36.7878 52.714 36.9133 52.6732 37.0663 52.6427C37.2204 52.6121 37.4052 52.5942 37.6205 52.5891V52.3904C37.6205 52.2145 37.5823 52.0794 37.5059 51.9851C37.4307 51.8896 37.3186 51.8418 37.1695 51.8418C37.0777 51.8418 36.9994 51.8545 36.9344 51.88C36.8707 51.9055 36.8165 51.9335 36.7719 51.9641C36.7273 51.9947 36.691 52.0227 36.663 52.0482C36.6349 52.0737 36.6114 52.0865 36.5922 52.0865C36.5782 52.0865 36.5668 52.0833 36.5578 52.0769C36.5489 52.0705 36.5413 52.0622 36.5349 52.052L36.5024 51.9966ZM38.4075 53.6289V51.7271H38.5088C38.5407 51.7271 38.5592 51.743 38.5643 51.7749L38.5815 52.0501C38.6554 51.9444 38.7401 51.859 38.8357 51.794C38.9313 51.729 39.0389 51.6965 39.1587 51.6965C39.2976 51.6965 39.4085 51.7367 39.4913 51.817C39.5754 51.8972 39.6321 52.0087 39.6614 52.1514C39.6843 52.0737 39.7162 52.0062 39.757 51.9488C39.799 51.8915 39.8468 51.8443 39.9003 51.8074C39.9538 51.7692 40.0118 51.7411 40.0742 51.7233C40.1379 51.7055 40.2029 51.6965 40.2692 51.6965C40.3635 51.6965 40.4482 51.7125 40.5234 51.7443C40.5986 51.7749 40.6623 51.8208 40.7145 51.8819C40.7668 51.9431 40.8069 52.0183 40.835 52.1075C40.863 52.1967 40.877 52.2986 40.877 52.4133V53.6289H40.6954V52.4133C40.6954 52.2273 40.6553 52.0858 40.575 51.989C40.4947 51.8909 40.3801 51.8418 40.231 51.8418C40.1647 51.8418 40.101 51.8539 40.0398 51.8781C39.9799 51.9023 39.9264 51.9386 39.8793 51.9871C39.8334 52.0342 39.7965 52.0935 39.7684 52.1648C39.7417 52.2362 39.7283 52.319 39.7283 52.4133V53.6289H39.5448V52.4133C39.5448 52.2285 39.5078 52.0871 39.4339 51.989C39.3613 51.8909 39.2543 51.8418 39.1128 51.8418C39.0096 51.8418 38.914 51.8724 38.8261 51.9335C38.7382 51.9947 38.6598 52.0794 38.591 52.1878V53.6289H38.4075ZM41.6671 53.2141C41.7041 53.2689 41.7423 53.3154 41.7818 53.3537C41.8226 53.3906 41.8652 53.4212 41.9098 53.4454C41.9544 53.4684 42.0016 53.4849 42.0513 53.4951C42.1023 53.5053 42.1558 53.5104 42.2118 53.5104C42.324 53.5104 42.4221 53.49 42.5062 53.4492C42.5903 53.4085 42.6604 53.3511 42.7164 53.2772C42.7738 53.202 42.8165 53.1128 42.8445 53.0096C42.8738 52.9051 42.8885 52.7905 42.8885 52.6656C42.8885 52.3827 42.8362 52.175 42.7317 52.0425C42.6272 51.9087 42.4775 51.8418 42.2826 51.8418C42.1564 51.8418 42.0424 51.8743 41.9404 51.9393C41.8385 52.0043 41.7474 52.0947 41.6671 52.2107V53.2141ZM41.6595 52.0692C41.7436 51.9546 41.8417 51.8635 41.9538 51.7959C42.0672 51.7284 42.194 51.6946 42.3342 51.6946C42.5673 51.6946 42.7489 51.7755 42.8789 51.9374C43.0101 52.0992 43.0758 52.3419 43.0758 52.6656C43.0758 52.8045 43.0573 52.9345 43.0203 53.0555C42.9847 53.1753 42.9311 53.2798 42.8598 53.369C42.7897 53.4569 42.7031 53.5263 42.5998 53.5773C42.4979 53.6283 42.38 53.6538 42.2462 53.6538C42.1175 53.6538 42.006 53.6302 41.9118 53.583C41.8175 53.5359 41.7359 53.4664 41.6671 53.3747V54.3017H41.4836V51.7271H41.5849C41.6168 51.7271 41.6352 51.743 41.6403 51.7749L41.6595 52.0692Z" fill="#C0CFF5"/>
<path d="M28.0161 6.61192L29.7021 9.41336L29.7257 9.45259L29.7703 9.46292L32.9556 10.2006L30.8122 12.6698L30.7822 12.7043L30.7862 12.7499L31.0689 16.0073L28.0583 14.7319L28.0161 14.714L27.974 14.7319L24.9634 16.0073L25.2461 12.7499L25.25 12.7043L25.22 12.6698L23.0767 10.2006L26.262 9.46292L26.3066 9.45259L26.3302 9.41336L28.0161 6.61192Z" fill="#E8C186" stroke="#F2D5A9" stroke-width="0.216129"/>
<path d="M19.6502 29.4537V30.4707H15.7699V23.8463H17.0022V29.4537H19.6502ZM21.767 24.8267V26.6637H24.0851V27.612H21.767V29.4857H24.7081V30.4707H20.53V23.8463H24.7081V24.8267H21.767ZM31.4763 23.8463L28.8009 30.4707H27.6877L25.0122 23.8463H26.0018C26.1087 23.8463 26.1957 23.8723 26.2629 23.9242C26.3301 23.9761 26.3805 24.0433 26.4141 24.1257L27.9763 28.1664C28.0282 28.2977 28.0771 28.4428 28.1229 28.6016C28.1717 28.7573 28.2176 28.9207 28.2603 29.0918C28.297 28.9207 28.3367 28.7573 28.3794 28.6016C28.4222 28.4428 28.4695 28.2977 28.5214 28.1664L30.0745 24.1257C30.0989 24.0555 30.1462 23.9914 30.2165 23.9333C30.2898 23.8753 30.3784 23.8463 30.4822 23.8463H31.4763ZM33.3989 24.8267V26.6637H35.717V27.612H33.3989V29.4857H36.34V30.4707H32.162V23.8463H36.34V24.8267H33.3989ZM41.3124 29.4537V30.4707H37.4322V23.8463H38.6645V29.4537H41.3124ZM30.3276 43.6232V44.4707H26.6627V43.6232H28.005V39.7612C28.005 39.6085 28.0095 39.4512 28.0187 39.2894L27.0658 40.0865C27.0108 40.1293 26.9559 40.1567 26.9009 40.169C26.849 40.1781 26.7986 40.1781 26.7497 40.169C26.7039 40.1598 26.6627 40.1445 26.626 40.1231C26.5894 40.0987 26.5619 40.0728 26.5435 40.0453L26.1862 39.5551L28.2065 37.8371H29.1365V43.6232H30.3276Z" fill="white"/>
</svg>
