<svg width="24" height="24" viewBox="0 0 24 24" fill="none" xmlns="http://www.w3.org/2000/svg">
<mask id="path-1-inside-1_1780_8071" fill="white">
<path d="M19.1433 6.03949C19.4387 5.79302 19.48 5.35185 19.2136 5.07434C17.9757 3.78497 16.4114 2.84769 14.6813 2.36616C12.7269 1.82222 10.6533 1.88556 8.73574 2.54777C6.8182 3.20998 5.14741 4.43974 3.94518 6.0738C2.74295 7.70785 2.06614 9.66891 2.0046 11.6966C1.94306 13.7244 2.4997 15.7229 3.60062 17.4268C4.70154 19.1308 6.29468 20.4596 8.16853 21.2369C10.0424 22.0142 12.1083 22.2031 14.0921 21.7787C15.8483 21.403 17.4665 20.5623 18.7803 19.3504C19.063 19.0895 19.0485 18.6467 18.7687 18.3827C18.4888 18.1188 18.0497 18.1341 17.764 18.3918C16.6463 19.3997 15.2804 20.0999 13.8007 20.4164C12.0932 20.7817 10.3151 20.6191 8.7023 19.9501C7.08949 19.2811 5.71829 18.1374 4.77074 16.6708C3.82319 15.2042 3.3441 13.4842 3.39706 11.7389C3.45003 9.99366 4.03255 8.30579 5.0673 6.89938C6.10205 5.49296 7.54008 4.43452 9.19048 3.86457C10.8409 3.29461 12.6256 3.24009 14.3077 3.70826C15.7655 4.11399 17.0865 4.89565 18.141 5.96954C18.4106 6.24403 18.8479 6.28595 19.1433 6.03949Z"/>
</mask>
<path d="M19.1433 6.03949C19.4387 5.79302 19.48 5.35185 19.2136 5.07434C17.9757 3.78497 16.4114 2.84769 14.6813 2.36616C12.7269 1.82222 10.6533 1.88556 8.73574 2.54777C6.8182 3.20998 5.14741 4.43974 3.94518 6.0738C2.74295 7.70785 2.06614 9.66891 2.0046 11.6966C1.94306 13.7244 2.4997 15.7229 3.60062 17.4268C4.70154 19.1308 6.29468 20.4596 8.16853 21.2369C10.0424 22.0142 12.1083 22.2031 14.0921 21.7787C15.8483 21.403 17.4665 20.5623 18.7803 19.3504C19.063 19.0895 19.0485 18.6467 18.7687 18.3827C18.4888 18.1188 18.0497 18.1341 17.764 18.3918C16.6463 19.3997 15.2804 20.0999 13.8007 20.4164C12.0932 20.7817 10.3151 20.6191 8.7023 19.9501C7.08949 19.2811 5.71829 18.1374 4.77074 16.6708C3.82319 15.2042 3.3441 13.4842 3.39706 11.7389C3.45003 9.99366 4.03255 8.30579 5.0673 6.89938C6.10205 5.49296 7.54008 4.43452 9.19048 3.86457C10.8409 3.29461 12.6256 3.24009 14.3077 3.70826C15.7655 4.11399 17.0865 4.89565 18.141 5.96954C18.4106 6.24403 18.8479 6.28595 19.1433 6.03949Z" stroke="white" stroke-width="3" mask="url(#path-1-inside-1_1780_8071)"/>
<path d="M9.5 11.25C9.08579 11.25 8.75 11.5858 8.75 12C8.75 12.4142 9.08579 12.75 9.5 12.75V11.25ZM22 12.75C22.4142 12.75 22.75 12.4142 22.75 12C22.75 11.5858 22.4142 11.25 22 11.25V12.75ZM9.5 12.75H22V11.25H9.5V12.75Z" fill="white"/>
<path d="M18.7803 7.71967C18.4874 7.42678 18.0126 7.42678 17.7197 7.71967C17.4268 8.01256 17.4268 8.48744 17.7197 8.78033L18.7803 7.71967ZM21.4697 12.5303C21.7626 12.8232 22.2374 12.8232 22.5303 12.5303C22.8232 12.2374 22.8232 11.7626 22.5303 11.4697L21.4697 12.5303ZM17.7197 8.78033L21.4697 12.5303L22.5303 11.4697L18.7803 7.71967L17.7197 8.78033Z" fill="white"/>
<path d="M21.4697 11.4697C21.7626 11.1768 22.2374 11.1768 22.5303 11.4697C22.8232 11.7626 22.8232 12.2374 22.5303 12.5303L21.4697 11.4697ZM18.7803 16.2803C18.4874 16.5732 18.0126 16.5732 17.7197 16.2803C17.4268 15.9874 17.4268 15.5126 17.7197 15.2197L18.7803 16.2803ZM22.5303 12.5303L18.7803 16.2803L17.7197 15.2197L21.4697 11.4697L22.5303 12.5303Z" fill="white"/>
</svg>
